<?xml version="1.0" encoding="UTF-8" standalone="no"?>
<!-- Created with Inkscape (http://www.inkscape.org/) -->

<svg
   version="1.1"
   id="svg1"
   width="277.82205"
   height="161.99939"
   viewBox="0 0 277.82205 161.99939"
   xmlns="http://www.w3.org/2000/svg"
   xmlns:svg="http://www.w3.org/2000/svg">
  <defs
     id="defs1" />
  <g
     id="g1"
     transform="translate(-269.52042,-306.19385)">
    <path
       style="fill:#1a8ddb;fill-opacity:1;stroke:none;stroke-opacity:1"
       d="m 413.40571,467.6195 c -21.96758,-2.33933 -46.50731,-10.20795 -63.54623,-20.37598 -10.33004,-6.16448 -26.33106,-18.57804 -33.39765,-25.90982 -3.30444,-3.42845 -5.85512,-5.02092 -9.94772,-6.21067 -7.47043,-2.17171 -16.03163,-6.57867 -25.6084,-13.18215 -10.54638,-7.27205 -10.77695,-7.54133 -4.48944,-5.24317 5.12959,1.87493 22.26748,6.99614 23.41226,6.99614 0.30056,0 -1.13412,-2.23539 -3.18817,-4.96754 -13.21026,-17.57129 -25.36304,-48.42378 -26.92635,-68.35841 -0.68314,-8.71112 0.42243,-8.00138 3.62315,2.32595 7.58754,24.48172 34.52515,62.78522 49.86485,70.9045 4.0055,2.1201 13.24889,3.14649 28.7037,3.18726 23.34954,0.0616 41.22768,-3.24165 66,-12.19443 31.14546,-11.25606 76.06615,-41.5781 95.0906,-64.18737 4.11634,-4.89199 3.62398,-2.59034 -1.3175,6.15897 -12.20697,21.6135 -39.03247,46.99569 -63.72421,60.29563 l -8.04889,4.33544 13,0.29825 c 18.265,0.41904 31.95377,-1.171 36.61029,-4.25254 4.77765,-3.1617 15.18146,-13.61231 22.64638,-22.74824 14.77815,-18.08623 28.50765,-43.78669 33.71386,-63.10956 l 1.3979,-5.18791 0.066,6.63953 c 0.1358,13.70944 -5.68573,35.42318 -13.94827,52.02523 -4.72661,9.49723 -13.29287,23.15711 -17.29902,27.58524 -1.11957,1.2375 -1.80656,2.25 -1.52664,2.25 1.16938,0 19.72601,-7.87909 24.28254,-10.3103 2.71857,-1.45053 5.15607,-2.42411 5.41669,-2.16351 0.2606,0.26059 0.2863,0.59243 0.057,0.73741 -0.22919,0.14499 -2.66669,2.0929 -5.41669,4.3287 -8.78376,7.14135 -15.70059,11.481 -28,17.56734 -8.48214,4.19737 -15.46026,8.66551 -23.80353,15.24156 -12.8199,10.10447 -22.08021,15.78885 -34.92732,21.43989 -7.73013,3.40026 -8.92099,3.63556 -18.26915,3.60988 -9.13407,-0.0251 -25.85189,-2.56075 -29.41698,-4.46178 -0.87527,-0.46673 0.65393,-1.02118 4,-1.45032 11.78584,-1.51154 44.94059,-14.72043 53.7814,-21.42657 2.32138,-1.76087 2.12119,-1.80491 -11,-2.41973 -7.35043,-0.34442 -18.28101,-1.32651 -24.29017,-2.18244 -10.48358,-1.49324 -11.17159,-1.47613 -17,0.42256 -18.88818,6.15311 -39.00593,9.35227 -55.96243,8.89926 -6.83364,-0.18257 -12.21445,0.007 -11.95734,0.42123 1.0005,1.61196 20.32835,12.37226 29.34552,16.33739 25.69867,11.30051 52.22073,16.33339 79.5,15.08609 15.22825,-0.69629 26.39987,-2.62105 39.36168,-6.78165 5.14892,-1.65275 9.53384,-2.83283 9.74426,-2.6224 0.5776,0.5776 -17.33005,10.26657 -23.60594,12.77205 -21.03969,8.39953 -43.63414,11.94327 -63,9.88099 z m -42.86924,-75.43632 c -3.50308,-1.98133 -8.76418,-5.37166 -11.69133,-7.53407 -6.47922,-4.78649 -9.74086,-6.203 -19.43943,-8.44245 -13.77143,-3.17989 -32.11246,-11.86048 -39.75,-18.81319 -3.54105,-3.22354 -2.65766,-3.60281 2.56732,-1.10222 4.98219,2.38438 19.01441,6.72475 25.80649,7.98231 l 3.87619,0.71768 -7.12648,-7.52168 c -7.9678,-8.40964 -13.57112,-16.24381 -18.23666,-25.49719 -3.67681,-7.29239 -3.96608,-8.66046 -0.98605,-4.66338 10.45602,14.02456 43.64776,37.5846 56.07258,39.80124 7.30529,1.30329 38.03411,0.77667 48.27661,-0.82734 21.52245,-3.37051 41.74851,-9.43996 57.28906,-17.19135 5.65898,-2.82261 10.15898,-4.76386 10,-4.31388 -0.92469,2.61724 -15.9536,12.87714 -26.28906,17.94695 -19.29071,9.46259 -45.48978,15.95196 -64.45,15.96391 -5.20894,0.003 -8.08562,0.36106 -7.5,0.93278 0.86397,0.84346 23.19225,7.47017 27.95,8.29515 2.33874,0.40554 -20.11412,6.84232 -26,7.45368 -3.21385,0.33381 -5.2518,-0.29254 -10.36924,-3.18695 z"
       id="path7" />
  </g>
</svg>
